<svg width="192" height="52" viewBox="0 0 192 52" fill="none" xmlns="http://www.w3.org/2000/svg">
<path d="M0 0.828125H2.37067V1.37208H0.673855V1.97287H1.48573C1.84295 1.97287 2.11087 2.04594 2.2976 2.19207C2.48433 2.33821 2.57364 2.55742 2.57364 2.83345C2.57364 3.12573 2.4681 3.35305 2.26513 3.51543C2.06216 3.6778 1.76177 3.75899 1.3883 3.75899H0V0.828125ZM1.35583 3.26375C1.52632 3.26375 1.66434 3.23127 1.75365 3.1582C1.84295 3.09325 1.89167 2.98771 1.89167 2.85781C1.89167 2.59801 1.71305 2.46811 1.35583 2.46811H0.673855V3.25563H1.35583V3.26375Z" fill="#F6B31F"/>
<path d="M3.08511 0.828125H3.75897V2.74415L5.16351 0.828125H5.80489V3.76711H5.13103V1.8592L3.72649 3.76711H3.08511V0.828125Z" fill="#F6B31F"/>
<path d="M9.13356 0.828125V3.76711H8.45971V1.38832H7.45298L7.42863 1.99722C7.41239 2.41128 7.37991 2.75227 7.3312 3.01207C7.27437 3.27186 7.19318 3.46671 7.06328 3.60473C6.9415 3.74275 6.76289 3.81582 6.54368 3.81582C6.45438 3.81582 6.34072 3.79958 6.21082 3.76711L6.25141 3.19068C6.28388 3.1988 6.32448 3.20691 6.37319 3.20691C6.53556 3.20691 6.64923 3.10949 6.71418 2.92276C6.77913 2.72791 6.81972 2.42752 6.83596 2.02158L6.87655 0.828125H9.13356Z" fill="#F6B31F"/>
<path d="M9.83179 0.828125H10.5056V2.74415L11.9102 0.828125H12.5516V3.76711H11.8777V1.8592L10.4732 3.76711H9.83179V0.828125Z" fill="#F6B31F"/>
<path d="M15.9371 0.828125V3.76711H15.2551V2.56553H13.9236V3.76711H13.2416V0.828125H13.9236V1.9891H15.2551V0.828125H15.9371Z" fill="#F6B31F"/>
<path d="M18.7056 1.38832H17.3091L17.3173 3.77523H16.6434V0.828125H18.7137L18.7056 1.38832Z" fill="#F6B31F"/>
<path d="M21.5634 2.49247C21.6608 2.61425 21.7095 2.76038 21.7095 2.939C21.7095 3.1988 21.6121 3.40176 21.4172 3.5479C21.2224 3.69404 20.9382 3.76711 20.5729 3.76711H19.1277V0.828125H20.4998C20.8408 0.828125 21.1087 0.893075 21.2955 1.02297C21.4822 1.15287 21.5796 1.33961 21.5796 1.58317C21.5796 1.7293 21.5471 1.8592 21.4741 1.96475C21.401 2.07841 21.2954 2.1596 21.1655 2.22455C21.3279 2.2895 21.4659 2.3788 21.5634 2.49247ZM19.7935 2.04594H20.4267C20.5729 2.04594 20.6865 2.01346 20.7596 1.95663C20.8327 1.8998 20.8733 1.81049 20.8733 1.68871C20.8733 1.57505 20.8327 1.48574 20.7596 1.42079C20.6865 1.35584 20.5729 1.33149 20.4267 1.33149H19.7935V2.04594ZM21.0194 2.89028C21.0194 2.64672 20.857 2.52494 20.5404 2.52494H19.7935V3.26375H20.5404C20.857 3.26375 21.0194 3.14196 21.0194 2.89028Z" fill="#F6B31F"/>
<path d="M24.2101 3.1419H22.8461L22.5863 3.77516H21.8881L23.1952 0.836182H23.8691L25.1843 3.77516H24.4698L24.2101 3.1419ZM23.9908 2.6223L23.5281 1.4938L23.0653 2.6223H23.9908Z" fill="#F6B31F"/>
<path d="M28.3425 0.828125V3.76711H27.6687V1.38832H26.6619L26.6376 1.99722C26.6213 2.41128 26.5889 2.75227 26.5402 3.01207C26.4833 3.27186 26.4021 3.46671 26.2722 3.60473C26.1505 3.74275 25.9718 3.81582 25.7526 3.81582C25.6633 3.81582 25.5497 3.79958 25.4198 3.76711L25.4604 3.19068C25.4928 3.1988 25.5334 3.20691 25.5821 3.20691C25.7445 3.20691 25.8582 3.10949 25.9231 2.92276C25.9881 2.72791 26.0287 2.42752 26.0449 2.02158L26.0855 0.828125H28.3425Z" fill="#F6B31F"/>
<path d="M31.2896 2.03782C31.4844 2.20019 31.5738 2.43563 31.5738 2.74415C31.5738 3.07701 31.4682 3.3287 31.2571 3.50731C31.046 3.68592 30.7456 3.76711 30.3641 3.76711H29.0407V0.828125H29.7146V1.79425H30.4615C30.8187 1.79425 31.0947 1.87544 31.2896 2.03782ZM30.7375 3.13385C30.835 3.04454 30.8837 2.92276 30.8837 2.75227C30.8837 2.44375 30.6969 2.29762 30.3235 2.29762H29.7146V3.26375H30.3235C30.5021 3.26375 30.6401 3.22315 30.7375 3.13385Z" fill="#F6B31F"/>
<path d="M34.7157 0.828125V3.76711H34.0337V2.56553H32.7023V3.76711H32.0203V0.828125H32.7023V1.9891H34.0337V0.828125H34.7157Z" fill="#F6B31F"/>
<path d="M37.6628 2.03782C37.8576 2.20019 37.947 2.43563 37.947 2.74415C37.947 3.07701 37.8414 3.3287 37.6303 3.50731C37.4192 3.68592 37.1188 3.76711 36.7373 3.76711H35.4139V0.828125H36.0878V1.79425H36.8347C37.1919 1.79425 37.4679 1.87544 37.6628 2.03782ZM37.1188 3.13385C37.2163 3.04454 37.265 2.92276 37.265 2.75227C37.265 2.44375 37.0783 2.29762 36.7048 2.29762H36.0959V3.26375H36.7048C36.8753 3.26375 37.0133 3.22315 37.1188 3.13385ZM38.3204 0.828125H38.9943V3.76711H38.3204V0.828125Z" fill="#F6B31F"/>
<path d="M39.6925 0.828111H40.3664V2.74413L41.7709 0.828111H42.4123V3.76709H41.7384V1.85919L40.3339 3.76709H39.6925V0.828111ZM40.2365 0H40.6992C40.7073 0.202968 40.821 0.308512 41.0483 0.308512C41.162 0.308512 41.2432 0.284156 41.3081 0.227325C41.365 0.178612 41.3974 0.0974248 41.3974 0H41.8602C41.8602 0.211087 41.7871 0.373462 41.6572 0.479005C41.5192 0.584549 41.3163 0.64138 41.0483 0.64138C40.5125 0.64138 40.2446 0.430293 40.2365 0Z" fill="#F6B31F"/>
<path d="M47.3566 3.21503V4.37601H46.7314V3.76711H44.6612V4.37601H44.0279L44.036 3.21503H44.1497C44.3283 3.20691 44.4501 3.07701 44.5231 2.82533C44.5962 2.57365 44.6368 2.21643 44.6612 1.74554L44.6936 0.828125H46.9506V3.21503H47.3566ZM45.1645 2.69543C45.1158 2.93088 45.0509 3.10949 44.9615 3.21503H46.2768V1.38832H45.2701L45.2538 1.81861C45.2376 2.1596 45.2132 2.45187 45.1645 2.69543Z" fill="#F6B31F"/>
<path d="M50.0763 3.22315V3.76711H47.8031V0.828125H50.0195V1.37208H48.477V2.01346H49.8409V2.54118H48.477V3.22315H50.0763Z" fill="#F6B31F"/>
<path d="M52.9179 1.38826H51.9761V3.77516H51.3023V1.38826H50.3686V0.836182H52.9179V1.38826Z" fill="#F6B31F"/>
<path d="M53.8922 3.6211C53.6486 3.4912 53.4619 3.31259 53.3239 3.07714C53.1858 2.84982 53.1128 2.5819 53.1128 2.29774C53.1128 2.00547 53.1858 1.74567 53.3239 1.51835C53.4619 1.29102 53.6567 1.10429 53.8922 0.974391C54.1357 0.844491 54.4036 0.779541 54.7122 0.779541C54.9638 0.779541 55.1993 0.828253 55.4022 0.91756C55.6052 1.00687 55.7838 1.13677 55.9218 1.30726L55.4834 1.7132C55.2886 1.48587 55.0369 1.37221 54.7446 1.37221C54.566 1.37221 54.4036 1.4128 54.2575 1.49399C54.1114 1.57518 54.0058 1.68884 53.9246 1.82686C53.8434 1.973 53.8029 2.13537 53.8029 2.31398C53.8029 2.49259 53.8434 2.65497 53.9246 2.80111C54.0058 2.94724 54.1195 3.05279 54.2575 3.13397C54.4036 3.21516 54.566 3.25576 54.7446 3.25576C55.0369 3.25576 55.2886 3.14209 55.4834 2.90665L55.9218 3.31259C55.7838 3.48308 55.6052 3.61298 55.4022 3.70229C55.1912 3.79159 54.9638 3.8403 54.7122 3.8403C54.4036 3.81595 54.1357 3.751 53.8922 3.6211Z" fill="#F6B31F"/>
<path d="M57.4807 2.58177H57.0098V3.76711H56.3359V0.828125H57.0098V2.01346H57.4969L58.2682 0.828125H58.9826L58.0246 2.2489L59.0151 3.76711H58.2438L57.4807 2.58177Z" fill="#F6B31F"/>
<path d="M59.421 0.828125H60.0949V2.74415L61.4994 0.828125H62.1408V3.76711H61.4669V1.8592L60.0624 3.76711H59.421V0.828125Z" fill="#F6B31F"/>
<path d="M62.8309 0.828111H63.5048V2.74413L64.9093 0.828111H65.5507V3.76709H64.8768V1.85919L63.4723 3.76709H62.8309V0.828111ZM63.3749 0H63.8376C63.8457 0.202968 63.9594 0.308512 64.1867 0.308512C64.3004 0.308512 64.3816 0.284156 64.4465 0.227325C64.5034 0.178612 64.5358 0.0974248 64.5358 0H64.9986C64.9986 0.211087 64.9255 0.373462 64.7956 0.479005C64.6576 0.584549 64.4547 0.64138 64.1867 0.64138C63.6509 0.64138 63.3749 0.430293 63.3749 0Z" fill="#F6B31F"/>
<path d="M68.0431 3.6211C67.7996 3.4912 67.6128 3.31259 67.4748 3.07714C67.3368 2.84982 67.2637 2.5819 67.2637 2.29774C67.2637 2.00547 67.3368 1.74567 67.4748 1.51835C67.6128 1.29102 67.8077 1.10429 68.0431 0.974391C68.2867 0.844491 68.5546 0.779541 68.8631 0.779541C69.1148 0.779541 69.3502 0.828253 69.5532 0.91756C69.7562 1.00687 69.9348 1.13677 70.0728 1.30726L69.6344 1.7132C69.4396 1.48587 69.1879 1.37221 68.8956 1.37221C68.717 1.37221 68.5546 1.4128 68.4085 1.49399C68.2623 1.57518 68.1568 1.68884 68.0756 1.82686C67.9944 1.973 67.9538 2.13537 67.9538 2.31398C67.9538 2.49259 67.9944 2.65497 68.0756 2.80111C68.1568 2.94724 68.2705 3.05279 68.4085 3.13397C68.5546 3.21516 68.717 3.25576 68.8956 3.25576C69.1879 3.25576 69.4396 3.14209 69.6344 2.90665L70.0728 3.31259C69.9348 3.48308 69.7562 3.61298 69.5532 3.70229C69.3421 3.79159 69.1148 3.8403 68.8631 3.8403C68.5546 3.81595 68.2867 3.751 68.0431 3.6211Z" fill="#F6B31F"/>
<path d="M72.549 3.1419H71.1851L70.9253 3.77516H70.2271L71.5342 0.836182H72.2081L73.5233 3.76705H72.8088L72.549 3.1419ZM72.338 2.6223L71.8752 1.4938L71.4124 2.6223H72.338Z" fill="#F6B31F"/>
<path d="M77.0955 3.21503V4.37601H76.4622V3.76711H74.392V4.37601H73.7668L73.7749 3.21503H73.8886C74.0672 3.20691 74.189 3.07701 74.2621 2.82533C74.3351 2.57365 74.3757 2.21643 74.4001 1.74554L74.4326 0.828125H76.6896V3.21503H77.0955ZM74.9034 2.69543C74.8547 2.93088 74.7898 3.10949 74.7005 3.21503H76.0157V1.38832H75.009L74.9927 1.81861C74.9846 2.1596 74.9522 2.45187 74.9034 2.69543Z" fill="#F6B31F"/>
<path d="M168.472 24.3401L165.833 24.3645C164.802 24.3645 163.877 24.5106 163.049 24.811C162.22 25.1114 161.514 25.5498 160.921 26.1425C160.329 26.7271 159.882 27.4659 159.574 28.3427C159.257 29.2195 159.103 30.2343 159.103 31.3791V42.1202H153.818V19.7043H158.112L158.591 22.3835C159.346 21.6122 160.304 20.9709 161.457 20.4675C162.61 19.956 163.982 19.7043 165.565 19.7043H168.488V24.3401H168.472Z" fill="#F6B31F"/>
<path d="M23.0166 19.6716H28.3831V42.0875H23.0166V19.6716Z" fill="#F6B31F"/>
<path d="M92.0908 35.3327C92.1071 35.7549 92.2289 36.1527 92.4724 36.5343C92.7079 36.9159 93.0326 37.2406 93.4385 37.5166C93.8445 37.7927 94.3154 38.0119 94.8512 38.1661C95.387 38.3285 95.9716 38.4097 96.5967 38.4097C98.2773 38.4097 99.5195 38.158 100.323 37.6628C101.119 37.1594 101.525 36.4856 101.525 35.625C101.525 35.146 101.379 34.7481 101.086 34.4234C100.794 34.1068 100.372 33.8389 99.8199 33.6196C99.2678 33.4004 98.5939 33.2137 97.7902 33.0432C96.9945 32.8727 96.0853 32.6941 95.0704 32.5074C94.5589 32.4343 94.0312 32.3369 93.471 32.2232C92.9108 32.1096 92.3587 31.9553 91.8067 31.7523C91.2546 31.5575 90.7269 31.3058 90.2235 30.9973C89.7202 30.6888 89.2818 30.3153 88.9002 29.8769C88.5105 29.4304 88.202 28.9027 87.9746 28.2856C87.7473 27.6686 87.6255 26.9379 87.6255 26.0936C87.6255 25.0463 87.8123 24.0964 88.1938 23.2277C88.5754 22.3671 89.16 21.612 89.9556 20.9869C90.7512 20.3536 91.7742 19.8665 93.0082 19.5174C94.2423 19.1683 95.7199 18.9978 97.433 18.9978C98.7807 18.9978 99.9985 19.1683 101.078 19.5174C102.158 19.8665 103.075 20.3536 103.831 20.9788C104.586 21.6039 105.17 22.3508 105.576 23.2195C105.982 24.0882 106.185 25.0381 106.185 26.0692L100.892 26.0449C100.835 25.2573 100.461 24.616 99.7793 24.1045C99.0973 23.593 98.188 23.3413 97.0595 23.3413C96.3207 23.3413 95.6874 23.4144 95.1678 23.5687C94.6482 23.7229 94.2179 23.9178 93.8851 24.1694C93.5522 24.413 93.3005 24.7053 93.1463 25.03C92.9839 25.3548 92.9027 25.6958 92.9027 26.0449C92.9027 26.4508 93.0082 26.7918 93.2275 27.0678C93.4467 27.3439 93.7714 27.5793 94.2098 27.766C94.6482 27.9528 95.2003 28.1151 95.866 28.245C96.5318 28.3749 97.3193 28.4886 98.2205 28.5941C99.3084 28.7646 100.388 28.9838 101.444 29.2355C102.507 29.4872 103.449 29.8526 104.277 30.3316C105.105 30.8106 105.771 31.4438 106.282 32.2232C106.794 33.0107 107.046 34.0175 107.046 35.2515C107.046 36.518 106.794 37.6141 106.282 38.5558C105.771 39.4895 105.056 40.2689 104.123 40.894C103.197 41.5192 102.077 41.9901 100.77 42.2986C99.4626 42.6071 98.0094 42.7695 96.41 42.7695C94.8106 42.7695 93.4223 42.5503 92.2289 42.1037C91.0354 41.6572 90.0449 41.0808 89.2574 40.3744C88.4618 39.66 87.8772 38.8643 87.4794 37.9794C87.0897 37.0945 86.8948 36.2014 86.8948 35.3002L92.0908 35.3327Z" fill="#F6B31F"/>
<path d="M11.8614 29.0814L19.7285 19.6717H13.5177L6.61674 27.6768H5.77239V11.3906H0.478973V42.0876H5.77239V36.8997V33.0108H8.05375L14.086 42.0876H20.4267L11.8614 29.0814Z" fill="#F6B31F"/>
<path d="M23.0166 11.3906L23.252 17.4959H28.1801L28.3831 11.3906H23.0166Z" fill="#F6B31F"/>
<path d="M31.8173 30.8918C31.8173 29.2518 32.1015 27.7093 32.6698 26.2641C33.2381 24.819 34.0337 23.5525 35.0729 22.4727C36.1121 21.3929 37.3624 20.5404 38.8319 19.9153C40.3014 19.2902 41.9251 18.9816 43.7113 18.9816C45.3269 18.9816 46.7558 19.2496 48.0061 19.7854C49.2564 20.3212 50.3362 21.0032 51.2536 21.8313V11.3906H56.547V42.0794H52.0086L51.6839 39.4652C51.2373 39.928 50.7259 40.3664 50.1738 40.7642C49.6136 41.162 48.9966 41.5111 48.3308 41.8115C47.6651 42.1119 46.9506 42.3474 46.1956 42.5179C45.4406 42.6884 44.6449 42.7777 43.8006 42.7777C42.0145 42.7777 40.3826 42.4692 38.9131 41.844C37.4355 41.2189 36.1771 40.3664 35.1379 39.2947C34.0906 38.223 33.2787 36.9646 32.7023 35.5195C32.1096 34.0744 31.8173 32.5318 31.8173 30.8918ZM37.1107 30.8675C37.1107 31.9391 37.2975 32.9296 37.679 33.8308C38.0606 34.732 38.5721 35.5033 39.2216 36.1528C39.8711 36.8023 40.6343 37.2975 41.5111 37.6547C42.3798 38.012 43.3216 38.1906 44.3202 38.1906C45.3107 38.1906 46.2362 38.012 47.1049 37.6547C47.9736 37.2975 48.7368 36.7942 49.3781 36.1528C50.0195 35.5033 50.5391 34.7401 50.9126 33.8471C51.2942 32.954 51.4809 31.9635 51.4809 30.8756C51.4809 29.812 51.2942 28.8378 50.9126 27.9447C50.531 27.0517 50.0195 26.2885 49.37 25.6471C48.7205 25.0057 47.9574 24.5105 47.0805 24.1452C46.2118 23.7798 45.2701 23.6012 44.2715 23.6012C43.2729 23.6012 42.3311 23.7798 41.4624 24.137C40.5937 24.4943 39.8305 24.9976 39.1891 25.639C38.5396 26.2885 38.0363 27.0517 37.6628 27.9447C37.2975 28.8297 37.1107 29.8039 37.1107 30.8675Z" fill="#EA5D4A"/>
<path d="M42.258 46.9912L42.0713 51.765H44.7342L44.5475 46.9912H42.258Z" fill="#EA5D4A"/>
<path d="M49.8328 44.7585L47.8437 45.9114L50.0683 50.1331L52.374 48.8017L49.8328 44.7585Z" fill="#EA5D4A"/>
<path d="M34.4315 48.8017L36.7292 50.1331L38.9618 45.9114L36.9727 44.7585L34.4315 48.8017Z" fill="#EA5D4A"/>
<path d="M125.719 30.8917C125.719 29.2518 126.027 27.7092 126.636 26.2641C127.245 24.8189 128.097 23.5605 129.193 22.4807C130.289 21.4091 131.588 20.5566 133.107 19.9315C134.617 19.3063 136.265 18.9978 138.051 18.9978C139.853 18.9978 141.51 19.3063 143.028 19.9315C144.546 20.5566 145.853 21.4091 146.949 22.4807C148.045 23.5524 148.906 24.8189 149.523 26.2641C150.14 27.7092 150.448 29.2518 150.448 30.8917C150.448 32.548 150.14 34.0905 149.531 35.5275C148.922 36.9646 148.061 38.223 146.957 39.2946C145.853 40.3663 144.546 41.2188 143.028 41.8358C141.51 42.4528 139.845 42.7613 138.027 42.7613C136.241 42.7613 134.601 42.4528 133.09 41.8358C131.588 41.2188 130.289 40.3744 129.202 39.2946C128.114 38.223 127.261 36.9646 126.644 35.5194C126.027 34.0743 125.719 32.5317 125.719 30.8917ZM131.012 30.8674C131.012 31.9391 131.199 32.9296 131.564 33.8226C131.938 34.7157 132.441 35.487 133.082 36.1283C133.724 36.7778 134.471 37.2812 135.323 37.6384C136.184 38.0038 137.101 38.1824 138.092 38.1824C139.082 38.1824 139.999 38.0038 140.86 37.6465C141.721 37.2893 142.468 36.786 143.101 36.1446C143.742 35.4951 144.246 34.7238 144.619 33.8226C144.984 32.9214 145.171 31.9309 145.171 30.8593C145.171 29.7957 144.984 28.8215 144.619 27.9284C144.246 27.0353 143.742 26.2722 143.101 25.6308C142.459 24.9894 141.713 24.4942 140.844 24.1288C139.983 23.7635 139.066 23.5849 138.092 23.5849C137.101 23.5849 136.184 23.7635 135.323 24.1207C134.463 24.4779 133.716 24.9813 133.082 25.6227C132.441 26.2722 131.938 27.0353 131.564 27.9284C131.199 28.8377 131.012 29.812 131.012 30.8674Z" fill="#EA5D4A"/>
<path d="M136.906 14.6544H139.204L139.391 9.88867H136.728L136.906 14.6544Z" fill="#EA5D4A"/>
<path d="M129.08 12.852L131.629 16.887L133.61 15.7423L131.386 11.5205L129.08 12.852Z" fill="#EA5D4A"/>
<path d="M144.725 11.5205L142.5 15.7423L144.489 16.887L147.03 12.852L144.725 11.5205Z" fill="#EA5D4A"/>
<path d="M130.346 32.1259C130.346 31.6469 130.436 31.2004 130.614 30.7863C130.793 30.3642 131.036 29.9988 131.353 29.6903C131.67 29.3818 132.051 29.1301 132.49 28.9515C132.928 28.7729 133.407 28.6836 133.927 28.6836C134.446 28.6836 134.933 28.7729 135.372 28.9515C135.81 29.1301 136.192 29.3818 136.508 29.6903C136.825 29.9988 137.077 30.3642 137.255 30.7863C137.434 31.2085 137.523 31.6551 137.523 32.1259C137.523 32.6049 137.434 33.0515 137.255 33.4736C137.077 33.8877 136.833 34.253 136.508 34.5697C136.192 34.8782 135.81 35.1299 135.372 35.3085C134.933 35.4871 134.446 35.5764 133.919 35.5764C133.399 35.5764 132.92 35.4871 132.49 35.3085C132.051 35.1299 131.678 34.8863 131.361 34.5697C131.044 34.2612 130.801 33.8958 130.622 33.4736C130.436 33.0515 130.346 32.6049 130.346 32.1259Z" fill="#EA5D4A"/>
<path d="M36.4937 32.1259C36.4937 31.6469 36.583 31.2004 36.7616 30.7863C36.9402 30.3642 37.1838 29.9988 37.5004 29.6903C37.8171 29.3818 38.1986 29.1301 38.6371 28.9515C39.0755 28.7729 39.5545 28.6836 40.0741 28.6836C40.5937 28.6836 41.0808 28.7729 41.5192 28.9515C41.9576 29.1301 42.3392 29.3818 42.6558 29.6903C42.9725 29.9988 43.2241 30.3642 43.4028 30.7863C43.5814 31.2085 43.6707 31.6551 43.6707 32.1259C43.6707 32.6049 43.5814 33.0515 43.4028 33.4736C43.2241 33.8877 42.9806 34.253 42.6558 34.5697C42.3392 34.8782 41.9576 35.1299 41.5192 35.3085C41.0808 35.4871 40.5937 35.5764 40.066 35.5764C39.5464 35.5764 39.0674 35.4871 38.6371 35.3085C38.1986 35.1299 37.8252 34.8863 37.5086 34.5697C37.1919 34.2612 36.9484 33.8958 36.7697 33.4736C36.583 33.0515 36.4937 32.5968 36.4937 32.1259Z" fill="#EA5D4A"/>
<path d="M64.0974 35.3327C64.1137 35.7549 64.2354 36.1527 64.479 36.5343C64.7144 36.9159 65.0392 37.2406 65.4451 37.5166C65.8511 37.7927 66.322 38.0119 66.8578 38.1661C67.3936 38.3285 67.9782 38.4097 68.6033 38.4097C70.2839 38.4097 71.5261 38.158 72.3298 37.6628C73.1255 37.1594 73.5314 36.4856 73.5314 35.625C73.5314 35.146 73.3853 34.7481 73.093 34.4234C72.8007 34.1068 72.3785 33.8389 71.8265 33.6196C71.2744 33.4004 70.6005 33.2137 69.7968 33.0432C69.0011 32.8727 68.0918 32.6941 67.077 32.5074C66.5655 32.4343 66.0378 32.3369 65.4776 32.2232C64.9174 32.1096 64.3653 31.9553 63.8133 31.7523C63.2612 31.5575 62.7335 31.3058 62.2301 30.9973C61.7267 30.6888 61.2883 30.3153 60.9068 29.8769C60.5171 29.4304 60.2167 28.9027 59.9812 28.2856C59.7458 27.6686 59.6321 26.9379 59.6321 26.0936C59.6321 25.0463 59.8188 24.0964 60.2004 23.2277C60.582 22.3671 61.1666 21.612 61.9622 20.9869C62.7578 20.3536 63.7808 19.8665 65.0148 19.5174C66.2489 19.1683 67.7265 18.9978 69.4395 18.9978C70.7873 18.9978 72.0051 19.1683 73.0849 19.5174C74.1646 19.8665 75.0821 20.3536 75.8371 20.9788C76.5922 21.6039 77.1767 22.3508 77.5826 23.2195C77.9886 24.0882 78.1915 25.0381 78.1915 26.0692L72.8981 26.0449C72.8413 25.2573 72.4678 24.616 71.7859 24.1045C71.1039 23.593 70.1946 23.3413 69.0661 23.3413C68.3273 23.3413 67.694 23.4144 67.1744 23.5687C66.6548 23.7229 66.2245 23.9178 65.8917 24.1694C65.5588 24.413 65.3071 24.7053 65.1529 25.03C64.9905 25.3548 64.9093 25.6958 64.9093 26.0449C64.9093 26.4508 65.0148 26.7918 65.234 27.0678C65.4532 27.3439 65.778 27.5793 66.2164 27.766C66.6548 27.9528 67.2069 28.1151 67.8726 28.245C68.5384 28.3749 69.3259 28.4886 70.2271 28.5941C71.315 28.7646 72.3948 28.9838 73.4502 29.2355C74.5138 29.4872 75.4555 29.8526 76.2836 30.3316C77.1118 30.8106 77.7775 31.4438 78.289 32.2232C78.8004 33.0107 79.0521 34.0175 79.0521 35.2515C79.0521 36.518 78.8004 37.6141 78.289 38.5558C77.7775 39.4895 77.063 40.2689 76.1294 40.894C75.2038 41.5192 74.0835 41.9901 72.7763 42.2986C71.4692 42.6071 70.016 42.7695 68.4166 42.7695C66.8172 42.7695 65.4289 42.5503 64.2354 42.1037C63.042 41.6572 62.0515 41.0808 61.264 40.3744C60.4683 39.66 59.8838 38.8643 59.486 37.9794C59.0963 37.0945 58.9014 36.2014 58.9014 35.3002L64.0974 35.3327Z" fill="#F6B31F"/>
<path d="M112.104 14.2241L117.275 14.1997V20.4755H124.306V24.9814H117.259V34.0013C117.259 34.8862 117.364 35.6169 117.567 36.2015C117.77 36.7779 118.055 37.2407 118.404 37.5735C118.753 37.9064 119.167 38.1419 119.638 38.2799C120.109 38.4179 120.612 38.4828 121.14 38.4828H124.907L124.866 42.7695H120.644C119.459 42.7695 118.347 42.6478 117.299 42.4042C116.26 42.1606 115.351 41.7141 114.58 41.0646C113.808 40.4151 113.2 39.522 112.745 38.3935C112.298 37.265 112.071 35.8118 112.071 34.0419V24.9814H108.385V20.4836H112.12L112.104 14.2241Z" fill="#F6B31F"/>
<path d="M192 19.7042L183.532 42.6477C182.672 45.1726 181.608 46.6665 180.342 47.6976C179.075 48.7286 177.573 49.1346 175.754 49.1995C175.332 49.2158 175.227 49.232 174.593 49.232C173.554 49.232 172.499 49.2158 172.499 49.2158V44.4988C173.952 44.4988 173.376 44.5475 175.202 44.4014C176.233 44.3202 176.932 43.898 177.394 43.4758C177.857 43.0536 178.279 42.6396 178.653 41.6653L178.726 41.4624L170.607 19.696H176.217L181.478 34.2611L186.78 19.696H192V19.7042Z" fill="#F6B31F"/>
</svg>
